<?xml version="1.0" encoding="utf-8"?>
<!-- Generator: Adobe Illustrator 21.0.0, SVG Export Plug-In . SVG Version: 6.00 Build 0)  -->
<svg version="1.1" id="Слой_1" xmlns="http://www.w3.org/2000/svg" xmlns:xlink="http://www.w3.org/1999/xlink" x="0px" y="0px"
	 viewBox="0 0 20 18" style="enable-background:new 0 0 20 18;" xml:space="preserve">
<style type="text/css">
	.st0{fill:none;}
</style>
<g id="Layer_2">
	<path d="M14.8,18h-10c-1.7,0-3.3-0.9-4.1-2.4c-0.8-1.4-0.8-3.2,0-4.7l5-8.6c1.3-2.3,4.2-3,6.5-1.7c0.7,0.4,1.3,1,1.7,1.7l5,8.6l0,0
		c0.8,1.4,0.8,3.2,0,4.7C18,17.1,16.5,18,14.8,18z M9.7,1.5C8.6,1.5,7.5,2.1,7,3.1l-5,8.6c-0.6,1-0.6,2.2,0,3.2
		c0.6,1,1.6,1.6,2.8,1.6h10c1.2,0,2.2-0.6,2.8-1.6c0.6-1,0.6-2.2,0-3.2l-5-8.6C12,2.1,10.9,1.5,9.7,1.5z"/>
	<path class="st0" d="M9.7,6C9.6,6,9.5,6.1,9.4,6.2C9.3,6.3,9.3,6.4,9.3,6.5l0.4,1.6l0.4-1.6c0-0.1,0-0.3-0.1-0.4
		C10,6.1,9.9,6,9.7,6z"/>
	<path d="M11.2,5.3c-0.7-0.8-1.9-1-2.7-0.3C8.4,5,8.3,5.1,8.2,5.3C7.9,5.7,7.8,6.3,7.9,6.9L9,11.4c0.1,0.4,0.5,0.6,0.9,0.5
		c0.3-0.1,0.5-0.3,0.5-0.5l1.1-4.5C11.7,6.3,11.6,5.7,11.2,5.3z M10.1,6.5L9.7,8.2L9.3,6.5c0-0.1,0-0.3,0.1-0.4
		C9.6,6,9.8,5.9,10,6.1c0,0,0.1,0.1,0.1,0.1C10.2,6.3,10.2,6.4,10.1,6.5z"/>
	<circle cx="9.7" cy="13.9" r="1.1"/>
</g>
</svg>
