<?xml version="1.0" encoding="utf-8"?>
<!-- Generator: Adobe Illustrator 21.0.0, SVG Export Plug-In . SVG Version: 6.00 Build 0)  -->
<svg version="1.1" id="Слой_1" xmlns="http://www.w3.org/2000/svg" xmlns:xlink="http://www.w3.org/1999/xlink" x="0px" y="0px"
	 viewBox="0 0 56 56" style="enable-background:new 0 0 56 56;" xml:space="preserve">
<style type="text/css">
	.st0{fill:#FFFFFF;}
	.st1{fill:#FF7747;stroke:#000000;stroke-width:2;stroke-miterlimit:10;}
</style>
<circle class="st0" cx="28.5" cy="28" r="27"/>
<path class="st1" d="M39.5,42h-22c-2.2,0-4-1.8-4-4V18c0-2.2,1.8-4,4-4h22c2.2,0,4,1.8,4,4v20C43.5,40.2,41.7,42,39.5,42z"/>
<path d="M28.5,36.5L28.5,36.5c-0.3,0-0.5,0.2-0.5,0.5v2.5c0,0.3,0.2,0.5,0.5,0.5l0,0c0.3,0,0.5-0.2,0.5-0.5V37
	C29,36.8,28.8,36.5,28.5,36.5z"/>
<path d="M28.5,31.4L28.5,31.4c-0.3,0-0.5,0.2-0.5,0.5v2.5c0,0.3,0.2,0.5,0.5,0.5l0,0c0.3,0,0.5-0.2,0.5-0.5v-2.5
	C29,31.6,28.8,31.4,28.5,31.4z"/>
<path d="M28.5,26.2L28.5,26.2c-0.3,0-0.5,0.2-0.5,0.5v2.5c0,0.3,0.2,0.5,0.5,0.5l0,0c0.3,0,0.5-0.2,0.5-0.5v-2.5
	C29,26.4,28.8,26.2,28.5,26.2z"/>
<path d="M28.5,21L28.5,21c-0.3,0-0.5,0.2-0.5,0.5V24c0,0.3,0.2,0.5,0.5,0.5l0,0c0.3,0,0.5-0.2,0.5-0.5v-2.5C29,21.2,28.8,21,28.5,21
	z"/>
<path d="M28.5,16L28.5,16c-0.3,0-0.5,0.2-0.5,0.5V19c0,0.3,0.2,0.5,0.5,0.5l0,0c0.3,0,0.5-0.3,0.5-0.5v-2.5C29,16.2,28.8,16,28.5,16
	z"/>
<path class="st0" d="M35,29h-2c-0.5,0-1-0.4-1-1l0,0c0-0.5,0.4-1,1-1h2c0.5,0,1,0.4,1,1l0,0C36,28.6,35.6,29,35,29z"/>
<path class="st0" d="M24,29h-2c-0.5,0-1-0.4-1-1l0,0c0-0.5,0.4-1,1-1h2c0.5,0,1,0.4,1,1l0,0C25,28.6,24.6,29,24,29z"/>
</svg>
