<svg id="Слой_1" xmlns="http://www.w3.org/2000/svg" viewBox="0 0 122 36"><style>.st0{fill:#fff}.st1{fill:#ff7747}.st2{fill:#c3c3c3}</style><path class="st0" d="M38 20.1v-13h2.8l1.5 9.2 1.4-9.2h2.9v13h-2v-9.3l-1.4 9.3h-1.9L39.7 11v9.1H38zM47.8 20.1v-13h5.4V9h-3.4v3.6h2.7v1.8h-2.7v3.8h3.4v1.9h-5.4zM54.5 20.1v-13h5.6V9h-3.6v3.3h1.2c1 0 1.7.3 2.2.8.5.5.8 1.3.8 2.4v1.4c0 1-.3 1.8-.8 2.4-.5.5-1.3.8-2.2.8h-3.2zm2-1.9h1.2c.3 0 .6-.1.8-.3.2-.2.3-.5.3-.9v-1.6c0-.4-.1-.8-.3-.9-.2-.2-.4-.3-.8-.3h-1.2v4zM62 20.1v-13h5.4V9H64v3.6h2.7v1.8H64v3.8h3.4v1.9H62zM68.1 20.1v-1.9h.6c.1 0 .3-.1.4-.2s.2-.2.2-.4.1-.4.1-.7l.2-9.8h5.7v13h-2V9h-1.7l-.2 7.8c0 1.2-.3 2-.7 2.5s-1.2.8-2.2.8h-.4zM76.8 20.1v-13h2V12h.9c1 0 1.7.3 2.2.8.5.5.7 1.3.7 2.4v1.7c0 1-.2 1.8-.7 2.4-.5.5-1.2.8-2.2.8h-2.9zm2-1.9h.9c.3 0 .6-.1.7-.3.2-.2.2-.5.2-.9v-1.9c0-.4-.1-.8-.2-.9-.2-.2-.4-.3-.7-.3h-.9v4.3z"/><path class="st1" d="M83.9 20.1v-13h2v5.6l2.6-5.6h2l-2.8 5.8 2.8 7.2h-2l-1.9-5.2-.6 1.2v4h-2.1zM90.8 7.1h2l1.1 4.4.6 3 .5-3 .9-4.4h2l-2.1 9.6c-.1.5-.2.9-.3 1.3-.1.3-.3.7-.5 1-.2.3-.4.5-.7.7-.3.2-.6.3-1 .4-.4.1-.9.1-1.4.1v-1.8c.5 0 1 0 1.2-.2.3-.1.5-.4.5-.9v-.1L90.8 7.1zM98.8 20.1v-13h6.3v13h-2V9h-2.3v11.1h-2zM106.4 17v-6.7c0-1 .3-1.8.8-2.4s1.3-.8 2.2-.8c1 0 1.7.3 2.2.8s.8 1.4.8 2.4V17c0 1-.3 1.8-.8 2.4-.5.6-1.3.8-2.2.8-1 0-1.7-.3-2.2-.8-.5-.6-.8-1.4-.8-2.4zm2 .1c0 .9.3 1.3 1 1.3s1-.4 1-1.3v-7c0-.8-.3-1.3-1-1.3s-1 .4-1 1.3v7zM113.7 20.1v-13h2v5.6h2.3V7.1h2v13h-2v-5.5h-2.3v5.5h-2z"/><g><path class="st2" d="M38.5 24v3.6H40V24h.7v3.6h1.5V24h.8v4.2h-5.3V24h.8zM45.5 26.4H45v1.8h-.7V24h.7v1.8h.5l1.4-1.8h.9l-1.7 2 1.8 2.2H47l-1.5-1.8zM51.1 28.3c0-.1-.1-.2-.1-.4-.3.3-.7.5-1.2.5-.4 0-.8-.1-1-.4s-.4-.5-.4-.9.2-.8.5-1 .8-.4 1.4-.4h.7v-.3c0-.3-.1-.5-.2-.6s-.4-.2-.7-.2c-.3 0-.5.1-.6.2s-.3.3-.3.5h-.7c0-.2.1-.4.2-.6s.4-.4.6-.5.5-.2.8-.2c.5 0 .9.1 1.1.4s.4.6.4 1v1.9c0 .4 0 .7.1.9v.1h-.6zm-1.2-.6c.2 0 .4-.1.6-.2s.4-.3.4-.5v-.9h-.6c-.9 0-1.3.3-1.3.8 0 .2.1.4.2.5s.4.3.7.3zM52.7 26.2c0-.7.1-1.3.4-1.7s.6-.6 1.1-.6c.2 0 .4 0 .6.1v-1.8h.7V24c.2-.1.4-.1.6-.1.5 0 .9.2 1.1.6s.4 1 .4 1.7c0 .6-.1 1.1-.4 1.5s-.6.6-1.1.6c-.3 0-.5 0-.6-.1v1.7h-.7v-1.7c-.2.1-.4.1-.6.1-.5 0-.8-.2-1.1-.6s-.4-.8-.4-1.5zm.7.1c0 .5.1.8.3 1.1s.4.4.7.4c.2 0 .3 0 .4-.1v-3.1c-.1 0-.2-.1-.4-.1-.3 0-.6.1-.7.4s-.3.8-.3 1.4zm3.6-.1c0-.5-.1-.9-.3-1.2s-.4-.4-.8-.4c-.2 0-.3 0-.4.1v3.1c.1 0 .3.1.4.1.3 0 .6-.1.8-.4s.3-.8.3-1.3zM59.4 25.5h1.1c.5 0 .9.1 1.1.4s.4.6.4 1-.1.8-.4 1-.7.4-1.2.4h-1.8V24h.7v1.5zm0 .6v1.6h1.1c.3 0 .5-.1.6-.2s.2-.3.2-.6c0-.2-.1-.4-.2-.6s-.3-.2-.6-.2h-1.1zm4.2 2.2h-.7V24h.7v4.3zM66.3 26.1h-1.9v-.6h1.9v.6zM68.3 26.4h-.5v1.8h-.7V24h.7v1.8h.5l1.4-1.8h.9l-1.7 2 1.8 2.2h-.9l-1.5-1.8zM72.7 27.2l1-3.2h.8l-1.7 4.9c-.3.7-.7 1.1-1.3 1.1h-.1l-.3-.1v-.6h.2c.2 0 .4 0 .6-.1s.2-.3.3-.5l.2-.4-1.5-4.3h.8l1 3.2zM78.6 28.3h-.7v-3.6H76v3.6h-.7V24h3.4v4.3zM81.5 28.3c-.6 0-1-.2-1.4-.6s-.5-.9-.5-1.5v-.1c0-.4.1-.8.2-1.1s.4-.6.7-.8.6-.3.9-.3c.5 0 1 .2 1.3.5s.5.9.5 1.6v.3h-2.9c0 .4.1.8.4 1s.5.4.9.4c.3 0 .5-.1.6-.2s.3-.2.5-.4l.4.3c-.4.7-.9.9-1.6.9zm-.1-3.8c-.3 0-.5.1-.7.3s-.3.5-.4.9h2.1v-.1c0-.4-.1-.7-.3-.9s-.4-.2-.7-.2z"/></g><path d="M30 32H8c-2.2 0-4-1.8-4-4V8c0-2.2 1.8-4 4-4h22c2.2 0 4 1.8 4 4v20c0 2.2-1.8 4-4 4z" fill="#ff7747" stroke="#000" stroke-width="2" stroke-miterlimit="10"/><path d="M18.5 26.5c-.3 0-.5.2-.5.5v2.5c0 .3.2.5.5.5s.5-.2.5-.5V27c0-.2-.2-.5-.5-.5zM18.5 21.4c-.3 0-.5.2-.5.5v2.5c0 .3.2.5.5.5s.5-.2.5-.5v-2.5c0-.3-.2-.5-.5-.5zM18.5 16.2c-.3 0-.5.2-.5.5v2.5c0 .3.2.5.5.5s.5-.2.5-.5v-2.5c0-.3-.2-.5-.5-.5zM18.5 11c-.3 0-.5.2-.5.5V14c0 .3.2.5.5.5s.5-.2.5-.5v-2.5c0-.3-.2-.5-.5-.5zM18.5 6c-.3 0-.5.2-.5.5V9c0 .3.2.5.5.5s.5-.3.5-.5V6.5c0-.3-.2-.5-.5-.5z"/><path class="st0" d="M25 19h-2c-.5 0-1-.4-1-1 0-.5.4-1 1-1h2c.5 0 1 .4 1 1s-.4 1-1 1zM14 19h-2c-.5 0-1-.4-1-1 0-.5.4-1 1-1h2c.5 0 1 .4 1 1s-.4 1-1 1z"/></svg>