<svg id="Слой_1" xmlns="http://www.w3.org/2000/svg" viewBox="0 0 13 10"><style>.st0{fill:#878787}</style><g id="users-team-users-team_1_"><path class="st0" d="M7.4 7.5c-.2 0-.2-.5-.2-.5s.5-.5.7-1.2c.3 0 .5-.8.2-1 0-.3.4-2.2-1.6-2.2S4.9 4.5 4.9 4.8c-.3.3-.1 1 .2 1 .1.7.7 1.2.7 1.2s0 .5-.2.5c-.7.1-2.9 1-2.9 2.1h7.4c.1-1.1-2.1-2-2.7-2.1z"/><path class="st0" d="M3.7 7.6c.4-.2.9-.5 1.3-.6-.1-.2-.3-.5-.4-.9-.2-.1-.3-.3-.4-.5 0-.2-.1-.5 0-.7 0-.2.1-.3.1-.4 0-.5-.1-1.3.5-2 .2-.2.5-.4.9-.5C5.6 1.3 5.3.6 4 .6c-2 0-1.6 1.9-1.6 2.2-.3.3-.1 1 .2 1 .1.7.7 1.2.7 1.2s0 .5-.2.5C2.5 5.7.3 6.7.3 7.7h3.2c.1 0 .1 0 .2-.1zM9.4 7.7h3.2c0-1.1-2.2-2-2.8-2.1-.2 0-.2-.5-.2-.5s.5-.5.7-1.2c.3 0 .5-.8.2-1 0-.3.4-2.2-1.6-2.2C7.6.6 7.3 1.3 7.2 2c.3.1.6.3.9.5.6.6.6 1.5.5 2 .1.1.1.3.1.4 0 .2 0 .5-.1.7 0 .2-.1.4-.3.5-.1.4-.3.7-.4.9.4.1.9.4 1.4.7h.1z"/></g></svg>