<svg id="Слой_1" xmlns="http://www.w3.org/2000/svg" viewBox="0 0 34 34"><style>.st1{fill:#fff}</style><circle cx="16.9" cy="16.9" r="16" fill="#0fb17b"/><path class="st1" d="M20.6 18l4.7-3.4c.2-.2.3-.4.2-.6s-.3-.4-.5-.4h-5.8l-1.8-5.5c-.1-.2-.3-.4-.5-.4-.3 0-.4.2-.5.4l-1.8 5.5H8.7c-.2 0-.4.2-.5.4-.1.2 0 .5.2.6L13 18l-1.8 5.5c-.1.2 0 .5.2.6.2.2.4.2.6 0l4.7-3.4 4.7 3.4c.1.1.2.1.3.1s.2-.1.3-.1c.2-.2.3-.4.2-.6L20.6 18zm-3.4 1.6c-.1-.1-.2-.1-.3-.1-.1 0-.2.1-.3.1l-3.7 2.6 1.4-4.3c.1-.2 0-.5-.2-.6l-3.7-2.6h4.5c.2 0 .4-.2.5-.4l1.4-4.3 1.4 4.3c.1.2.3.4.5.4h4.5l-3.7 2.6c-.2.2-.3.4-.2.6l1.4 4.3-3.5-2.6zM16.9 6.6c.3 0 .5-.2.5-.5V4.7c0-.3-.2-.5-.5-.5s-.5.2-.5.5v1.4c-.1.3.1.5.5.5zM16.9 27.1c-.3 0-.5.2-.5.5V29c0 .3.2.5.5.5s.5-.2.5-.5v-1.4c0-.3-.2-.5-.5-.5zM29 16.3h-1.4c-.3 0-.5.2-.5.5s.2.5.5.5H29c.3 0 .5-.2.5-.5s-.1-.5-.5-.5zM6.6 16.9c0-.3-.2-.5-.5-.5H4.7c-.3 0-.5.2-.5.5s.2.5.5.5h1.4c.3 0 .5-.2.5-.5zM24.5 9.8c.2 0 .3-.1.4-.2l1-1c.2-.2.2-.5 0-.7-.2-.2-.5-.2-.7 0l-1 1c-.2.2-.2.5 0 .7 0 .1.1.2.3.2zM8.9 24.1l-1 1c-.2.2-.2.5 0 .7.1.2.2.2.3.2s.3-.1.4-.2l1-1c.2-.2.2-.5 0-.7-.2-.2-.5-.2-.7 0zM24.9 24.1c-.2-.2-.5-.2-.7 0-.2.2-.2.5 0 .7l1 1c.1.1.3.2.4.2.2 0 .3-.1.4-.2.2-.2.2-.5 0-.7l-1.1-1zM8.9 9.6c.1.1.2.2.3.2.2 0 .3-.1.4-.2.2-.2.2-.5 0-.7l-1-1c-.2-.2-.5-.2-.7 0-.2.2-.2.5 0 .7l1 1zM20.9 7.4c.1.1.2.1.2.1.2 0 .4-.1.5-.3l.6-1.3c.1-.3 0-.6-.3-.7-.3-.1-.6 0-.7.3l-.6 1.3c-.1.2 0 .5.3.6zM12.8 26.3c-.3-.1-.6 0-.7.3l-.6 1.3c-.1.3 0 .6.3.7.1.1.2.1.2.1.2 0 .4-.1.5-.3l.6-1.3c.1-.4 0-.7-.3-.8zM28.2 21.1l-1.3-.6c-.3-.1-.6 0-.7.3-.1.3 0 .6.3.7l1.3.6c.1.1.2.1.2.1.2 0 .4-.1.5-.3.2-.3 0-.6-.3-.8zM7.2 12.1l-1.3-.6c-.3-.1-.6 0-.7.3-.1.3 0 .6.3.7l1.3.6c.1.1.2.1.2.1.2 0 .4-.1.5-.3.1-.3-.1-.7-.3-.8zM26.9 13.4c.1 0 .1 0 .2-.1l1.3-.5c.3-.1.4-.4.3-.7-.1-.3-.4-.4-.7-.3l-1.3.5c-.3.1-.4.4-.3.7 0 .3.3.4.5.4zM6.7 20.3l-1.3.5c-.3.2-.5.5-.4.8.1.2.3.3.5.3.1 0 .1 0 .2-.1l1.3-.5c.3-.1.4-.4.3-.7 0-.2-.3-.4-.6-.3zM21.4 26.7c-.1-.3-.4-.4-.7-.3-.3.1-.4.4-.3.7l.5 1.3c.1.2.3.3.5.3.1 0 .1 0 .2-.1.3-.1.4-.4.3-.7l-.5-1.2zM12.4 7.1c.1.2.3.3.5.3.1 0 .1 0 .2-.1.3-.1.4-.4.3-.7l-.5-1.3c-.2-.3-.5-.4-.8-.3-.3.1-.4.4-.3.7l.6 1.4z"/></svg>