<?xml version="1.0" encoding="utf-8"?>
<!-- Generator: Adobe Illustrator 21.0.0, SVG Export Plug-In . SVG Version: 6.00 Build 0)  -->
<svg version="1.1" id="Слой_1" xmlns="http://www.w3.org/2000/svg" xmlns:xlink="http://www.w3.org/1999/xlink" x="0px" y="0px"
	 viewBox="0 0 13 10" style="enable-background:new 0 0 13 10;" xml:space="preserve">
<style type="text/css">
	.st0{fill:#878787;}
</style>
<g>
	<g>
		<g>
			<path class="st0" d="M6.3,1.7c-2.2,0-4.1,1-5.3,2.7C2.3,6,4.2,7,6.3,7s4.1-1,5.3-2.7C10.4,2.7,8.5,1.7,6.3,1.7z M2.7,4.3
				c0.9-1,2.2-1.7,3.6-1.7c-0.9,0-1.7,0.8-1.7,1.7S5.4,6,6.3,6C4.9,6,3.5,5.4,2.7,4.3z M5.6,4.3c0-0.4,0.3-0.7,0.7-0.7
				C6.7,3.6,7,3.9,7,4.3c0,0.4-0.3,0.7-0.7,0.7C5.9,5.1,5.6,4.7,5.6,4.3z M6.3,6C6.3,6,6.3,6,6.3,6C7.3,6,8,5.3,8,4.3
				c0-0.9-0.8-1.7-1.7-1.7c0,0,0,0,0,0c1.5,0,2.8,0.7,3.6,1.7C9.1,5.4,7.8,6,6.3,6z"/>
		</g>
	</g>
</g>
</svg>
