<?xml version="1.0" encoding="utf-8"?>
<!-- Generator: Adobe Illustrator 21.0.0, SVG Export Plug-In . SVG Version: 6.00 Build 0)  -->
<svg version="1.1" id="Слой_1" xmlns="http://www.w3.org/2000/svg" xmlns:xlink="http://www.w3.org/1999/xlink" x="0px" y="0px"
	 viewBox="0 0 150 44.3" style="enable-background:new 0 0 150 44.3;" xml:space="preserve">
<style type="text/css">
	.st0{fill:#FF7747;}
	.st1{fill:#C3C3C3;}
	.st2{fill:#FF7747;stroke:#000000;stroke-width:2;stroke-miterlimit:10;}
	.st3{fill:#FFFFFF;}
</style>
<g>
	<path d="M46.5,24.7v-16h3.4L51.8,20l1.7-11.3h3.6v16h-2.5V13.3l-1.7,11.4h-2.3l-2-11.2v11.2H46.5z"/>
	<path d="M58.5,24.7v-16h6.6v2.3H61v4.4h3.3v2.2H61v4.7h4.2v2.3H58.5z"/>
	<path d="M66.8,24.7v-16h6.9v2.3h-4.4v4.1h1.5c1.2,0,2.1,0.4,2.7,1s1,1.6,1,3v1.7c0,1.2-0.4,2.2-1,3c-0.6,0.6-1.6,1-2.7,1
		C70.7,24.7,66.8,24.7,66.8,24.7z M69.2,22.4h1.5c0.4,0,0.7-0.1,1-0.4c0.2-0.2,0.4-0.6,0.4-1.1v-2c0-0.5-0.1-1-0.4-1.1
		c-0.2-0.2-0.5-0.4-1-0.4h-1.5V22.4z"/>
	<path d="M76,24.7v-16h6.6v2.3h-4.2v4.4h3.3v2.2h-3.3v4.7h4.2v2.3H76z"/>
	<path d="M83.5,24.7v-2.3c0.2,0,0.5,0,0.7,0c0.1,0,0.4-0.1,0.5-0.2c0.1-0.1,0.2-0.2,0.2-0.5c0-0.2,0.1-0.5,0.1-0.9l0.2-12.1h7v16
		h-2.5V11.1h-2.1l-0.2,9.6c0,1.5-0.4,2.5-0.9,3.1c-0.5,0.6-1.5,1-2.7,1C84,24.7,83.5,24.7,83.5,24.7z"/>
	<path d="M94.2,24.7v-16h2.5v6h1.1c1.2,0,2.1,0.4,2.7,1c0.6,0.6,0.9,1.6,0.9,3v2.1c0,1.2-0.2,2.2-0.9,3c-0.6,0.6-1.5,1-2.7,1H94.2z
		 M96.7,22.4h1.1c0.4,0,0.7-0.1,0.9-0.4c0.2-0.2,0.2-0.6,0.2-1.1v-2.3c0-0.5-0.1-1-0.2-1.1c-0.2-0.2-0.5-0.4-0.9-0.4h-1.1V22.4z"/>
	<path class="st0" d="M102.9,24.7v-16h2.5v6.9l3.2-6.9h2.5l-3.4,7.1l3.4,8.9h-2.5l-2.3-6.4l-0.7,1.5v4.9H102.9z"/>
	<path class="st0" d="M111.4,8.7h2.5l1.4,5.4l0.7,3.7l0.6-3.7l1.1-5.4h2.5l-2.6,11.8c-0.1,0.6-0.2,1.1-0.4,1.6
		c-0.1,0.4-0.4,0.9-0.6,1.2c-0.2,0.4-0.5,0.6-0.9,0.9c-0.4,0.2-0.7,0.4-1.2,0.5c-0.5,0.1-1.1,0.1-1.7,0.1v-2.2c0.6,0,1.2,0,1.5-0.2
		c0.4-0.1,0.6-0.5,0.6-1.1v-0.1L111.4,8.7z"/>
	<path class="st0" d="M121.3,24.7v-16h7.7v16h-2.5V11.1h-2.8v13.7H121.3z"/>
	<path class="st0" d="M130.6,20.9v-8.2c0-1.2,0.4-2.2,1-3s1.6-1,2.7-1c1.2,0,2.1,0.4,2.7,1c0.6,0.6,1,1.7,1,3v8.2c0,1.2-0.4,2.2-1,3
		c-0.6,0.7-1.6,1-2.7,1c-1.2,0-2.1-0.4-2.7-1C131,23.1,130.6,22.1,130.6,20.9z M133.1,21c0,1.1,0.4,1.6,1.2,1.6s1.2-0.5,1.2-1.6
		v-8.6c0-1-0.4-1.6-1.2-1.6s-1.2,0.5-1.2,1.6V21z"/>
	<path class="st0" d="M139.6,24.7v-16h2.5v6.9h2.8V8.7h2.5v16h-2.5v-6.8H142v6.8H139.6z"/>
</g>
<g>
	<path class="st1" d="M47.1,29.5v4.4h1.8v-4.4h0.9v4.4h1.8v-4.4h1v5.2h-6.5v-5.2H47.1z"/>
	<path class="st1" d="M55.7,32.5h-0.6v2.2h-0.9v-5.2h0.9v2.2h0.6l1.7-2.2h1.1L56.4,32l2.2,2.7h-1.1L55.7,32.5z"/>
	<path class="st1" d="M62.6,34.8c0-0.1-0.1-0.2-0.1-0.5c-0.4,0.4-0.9,0.6-1.5,0.6c-0.5,0-1-0.1-1.2-0.5c-0.2-0.4-0.5-0.6-0.5-1.1
		c0-0.5,0.2-1,0.6-1.2c0.4-0.2,1-0.5,1.7-0.5h0.9v-0.4c0-0.4-0.1-0.6-0.2-0.7c-0.1-0.1-0.5-0.2-0.9-0.2s-0.6,0.1-0.7,0.2
		c-0.1,0.1-0.4,0.4-0.4,0.6h-0.9c0-0.2,0.1-0.5,0.2-0.7c0.1-0.2,0.5-0.5,0.7-0.6c0.2-0.1,0.6-0.2,1-0.2c0.6,0,1.1,0.1,1.4,0.5
		c0.2,0.4,0.5,0.7,0.5,1.2v2.3c0,0.5,0,0.9,0.1,1.1v0.1H62.6z M61.1,34.1c0.2,0,0.5-0.1,0.7-0.2c0.2-0.1,0.5-0.4,0.5-0.6v-1.1h-0.7
		c-1.1,0-1.6,0.4-1.6,1c0,0.2,0.1,0.5,0.2,0.6S60.7,34.1,61.1,34.1z"/>
	<path class="st1" d="M64.6,32.2c0-0.9,0.1-1.6,0.5-2.1c0.4-0.5,0.7-0.7,1.4-0.7c0.2,0,0.5,0,0.7,0.1v-2.2H68v2.2
		c0.2-0.1,0.5-0.1,0.7-0.1c0.6,0,1.1,0.2,1.4,0.7s0.5,1.2,0.5,2.1c0,0.7-0.1,1.4-0.5,1.8c-0.4,0.5-0.7,0.7-1.4,0.7
		c-0.4,0-0.6,0-0.7-0.1v2.1h-0.9v-2.1c-0.2,0.1-0.5,0.1-0.7,0.1c-0.6,0-1-0.2-1.4-0.7C64.7,33.6,64.6,33.1,64.6,32.2L64.6,32.2z
		 M65.4,32.3c0,0.6,0.1,1,0.4,1.4c0.2,0.4,0.5,0.5,0.9,0.5c0.2,0,0.4,0,0.5-0.1v-3.8c-0.1,0-0.2-0.1-0.5-0.1c-0.4,0-0.7,0.1-0.9,0.5
		S65.4,31.6,65.4,32.3z M69.9,32.2c0-0.6-0.1-1.1-0.4-1.5c-0.2-0.4-0.5-0.5-1-0.5c-0.2,0-0.4,0-0.5,0.1v3.8c0.1,0,0.4,0.1,0.5,0.1
		c0.4,0,0.7-0.1,1-0.5C69.7,33.4,69.9,32.8,69.9,32.2z"/>
	<path class="st1" d="M72.8,31.4h1.4c0.6,0,1.1,0.1,1.4,0.5c0.2,0.4,0.5,0.7,0.5,1.2c0,0.5-0.1,1-0.5,1.2c-0.4,0.2-0.9,0.5-1.5,0.5
		h-2.2v-5.3h0.9v1.8H72.8z M72.8,32.1v2h1.4c0.4,0,0.6-0.1,0.7-0.2s0.2-0.4,0.2-0.7c0-0.2-0.1-0.5-0.2-0.7c-0.1-0.2-0.4-0.2-0.7-0.2
		C74.2,32.1,72.8,32.1,72.8,32.1z M78,34.8h-0.9v-5.3H78V34.8z"/>
	<path class="st1" d="M81.3,32.1H79v-0.7h2.3V32.1z"/>
	<path class="st1" d="M83.7,32.5h-0.6v2.2h-0.9v-5.2h0.9v2.2h0.6l1.7-2.2h1.1L84.5,32l2.2,2.7h-1.1L83.7,32.5z"/>
	<path class="st1" d="M89.2,33.4l1.2-3.9h1l-2.1,6c-0.4,0.9-0.9,1.4-1.6,1.4h-0.1l-0.4-0.1V36h0.2c0.2,0,0.5,0,0.7-0.1
		c0.2-0.1,0.2-0.4,0.4-0.6l0.2-0.5l-1.8-5.3h1L89.2,33.4z"/>
	<path class="st1" d="M96.4,34.8h-0.9v-4.4h-2.3v4.4h-0.9v-5.3h4.2v5.3H96.4z"/>
	<path class="st1" d="M100,34.8c-0.7,0-1.2-0.2-1.7-0.7s-0.6-1.1-0.6-1.8v-0.1c0-0.5,0.1-1,0.2-1.4c0.1-0.4,0.5-0.7,0.9-1
		c0.4-0.2,0.7-0.4,1.1-0.4c0.6,0,1.2,0.2,1.6,0.6c0.4,0.4,0.6,1.1,0.6,2v0.4h-3.6c0,0.5,0.1,1,0.5,1.2c0.4,0.2,0.6,0.5,1.1,0.5
		c0.4,0,0.6-0.1,0.7-0.2s0.4-0.2,0.6-0.5l0.5,0.4C101.5,34.6,100.8,34.8,100,34.8z M99.9,30.1c-0.4,0-0.6,0.1-0.9,0.4
		s-0.4,0.6-0.5,1.1h2.6v-0.1c0-0.5-0.1-0.9-0.4-1.1S100.2,30.1,99.9,30.1z"/>
</g>
<path class="st2" d="M36.6,39.3H9.6c-2.7,0-4.9-2.2-4.9-4.9V9.8c0-2.7,2.2-4.9,4.9-4.9h27.1c2.7,0,4.9,2.2,4.9,4.9v24.6
	C41.6,37.1,39.3,39.3,36.6,39.3z"/>
<path d="M22.5,32.6L22.5,32.6c-0.4,0-0.6,0.2-0.6,0.6v3.1c0,0.4,0.2,0.6,0.6,0.6l0,0c0.4,0,0.6-0.2,0.6-0.6v-3.1
	C23.1,33,22.9,32.6,22.5,32.6z"/>
<path d="M22.5,26.3L22.5,26.3c-0.4,0-0.6,0.2-0.6,0.6V30c0,0.4,0.2,0.6,0.6,0.6l0,0c0.4,0,0.6-0.2,0.6-0.6v-3.1
	C23.1,26.6,22.9,26.3,22.5,26.3z"/>
<path d="M22.5,19.9L22.5,19.9c-0.4,0-0.6,0.2-0.6,0.6v3.1c0,0.4,0.2,0.6,0.6,0.6l0,0c0.4,0,0.6-0.2,0.6-0.6v-3.1
	C23.1,20.2,22.9,19.9,22.5,19.9z"/>
<path d="M22.5,13.5L22.5,13.5c-0.4,0-0.6,0.2-0.6,0.6v3.1c0,0.4,0.2,0.6,0.6,0.6l0,0c0.4,0,0.6-0.2,0.6-0.6v-3.1
	C23.1,13.8,22.9,13.5,22.5,13.5z"/>
<path d="M22.5,7.4L22.5,7.4c-0.4,0-0.6,0.2-0.6,0.6v3.1c0,0.4,0.2,0.6,0.6,0.6l0,0c0.4,0,0.6-0.4,0.6-0.6V8
	C23.1,7.6,22.9,7.4,22.5,7.4z"/>
<path class="st3" d="M30.5,23.4H28c-0.6,0-1.2-0.5-1.2-1.2l0,0c0-0.6,0.5-1.2,1.2-1.2h2.5c0.6,0,1.2,0.5,1.2,1.2l0,0
	C31.7,22.9,31.2,23.4,30.5,23.4z"/>
<path class="st3" d="M17,23.4h-2.5c-0.6,0-1.2-0.5-1.2-1.2l0,0c0-0.6,0.5-1.2,1.2-1.2H17c0.6,0,1.2,0.5,1.2,1.2l0,0
	C18.2,22.9,17.7,23.4,17,23.4z"/>
</svg>
