<?xml version="1.0" encoding="utf-8"?>
<!-- Generator: Adobe Illustrator 21.0.0, SVG Export Plug-In . SVG Version: 6.00 Build 0)  -->
<svg version="1.1" id="Слой_1" xmlns="http://www.w3.org/2000/svg" xmlns:xlink="http://www.w3.org/1999/xlink" x="0px" y="0px"
	 viewBox="0 0 13 10" style="enable-background:new 0 0 13 10;" xml:space="preserve">
<style type="text/css">
	.st0{fill:#878787;}
</style>
<g id="users-team-users-team_1_">
	<path class="st0" d="M7.4,7.5c-0.2,0-0.2-0.5-0.2-0.5s0.5-0.5,0.7-1.2c0.3,0,0.5-0.8,0.2-1c0-0.3,0.4-2.2-1.6-2.2
		c-2,0-1.6,1.9-1.6,2.2c-0.3,0.3-0.1,1,0.2,1c0.1,0.7,0.7,1.2,0.7,1.2s0,0.5-0.2,0.5C4.9,7.6,2.7,8.5,2.7,9.6h3.7h3.7
		C10.2,8.5,8,7.6,7.4,7.5z"/>
	<g>
		<path class="st0" d="M3.7,7.6C4.1,7.4,4.6,7.1,5,7C4.9,6.8,4.7,6.5,4.6,6.1C4.4,6,4.3,5.8,4.2,5.6C4.2,5.4,4.1,5.1,4.2,4.9
			c0-0.2,0.1-0.3,0.1-0.4c0-0.5-0.1-1.3,0.5-2C5,2.3,5.3,2.1,5.7,2C5.6,1.3,5.3,0.6,4,0.6c-2,0-1.6,1.9-1.6,2.2
			c-0.3,0.3-0.1,1,0.2,1c0.1,0.7,0.7,1.2,0.7,1.2s0,0.5-0.2,0.5C2.5,5.7,0.3,6.7,0.3,7.7h3.2C3.6,7.7,3.6,7.7,3.7,7.6z"/>
		<path class="st0" d="M9.4,7.7h3.2c0-1.1-2.2-2-2.8-2.1c-0.2,0-0.2-0.5-0.2-0.5s0.5-0.5,0.7-1.2c0.3,0,0.5-0.8,0.2-1
			c0-0.3,0.4-2.2-1.6-2.2C7.6,0.6,7.3,1.3,7.2,2c0.3,0.1,0.6,0.3,0.9,0.5c0.6,0.6,0.6,1.5,0.5,2c0.1,0.1,0.1,0.3,0.1,0.4
			c0,0.2,0,0.5-0.1,0.7C8.6,5.8,8.5,6,8.3,6.1C8.2,6.5,8,6.8,7.9,7c0.4,0.1,0.9,0.4,1.4,0.7C9.3,7.7,9.3,7.7,9.4,7.7z"/>
	</g>
</g>
</svg>
