<?xml version="1.0" encoding="utf-8"?>
<!-- Generator: Adobe Illustrator 21.0.0, SVG Export Plug-In . SVG Version: 6.00 Build 0)  -->
<svg version="1.1" id="Слой_1" xmlns="http://www.w3.org/2000/svg" xmlns:xlink="http://www.w3.org/1999/xlink" x="0px" y="0px"
	 viewBox="0 0 20 20" style="enable-background:new 0 0 20 20;" xml:space="preserve">
<style type="text/css">
	.st0{fill:#10E39D;}
</style>
<path class="st0" d="M13.6,1.1c-2.1-1.4-4.9-1.4-7,0C3.8,2.9,2.9,6.5,4.5,9.4l5.6,10.2l5.6-10.2C17.2,6.5,16.4,2.9,13.6,1.1z
	 M14.5,8.8L10.1,17L5.6,8.8C4.3,6.5,5,3.6,7.2,2.1c0.9-0.6,1.8-0.9,2.8-0.9s2,0.3,2.8,0.9C15.1,3.6,15.8,6.5,14.5,8.8z"/>
<path class="st0" d="M10.1,2.6C8.3,2.6,6.9,4,6.9,5.8s1.4,3.1,3.1,3.1s3.1-1.4,3.1-3.1S11.8,2.6,10.1,2.6z M10.1,7.6
	c-1,0-1.9-0.8-1.9-1.9S9,3.9,10.1,3.9S12,4.7,12,5.8S11.1,7.6,10.1,7.6z"/>
</svg>
