<?xml version="1.0" encoding="utf-8"?>
<!-- Generator: Adobe Illustrator 21.0.0, SVG Export Plug-In . SVG Version: 6.00 Build 0)  -->
<svg version="1.1" id="Слой_1" xmlns="http://www.w3.org/2000/svg" xmlns:xlink="http://www.w3.org/1999/xlink" x="0px" y="0px"
	 viewBox="0 0 34 34" style="enable-background:new 0 0 34 34;" xml:space="preserve">
<style type="text/css">
	.st0{fill:#0FB17B;}
	.st1{fill:#FFFFFF;}
</style>
<circle class="st0" cx="16.9" cy="16.9" r="16"/>
<g>
	<g>
		<path class="st1" d="M20.6,18l4.7-3.4c0.2-0.2,0.3-0.4,0.2-0.6s-0.3-0.4-0.5-0.4h-5.8l-1.8-5.5c-0.1-0.2-0.3-0.4-0.5-0.4
			c-0.3,0-0.4,0.2-0.5,0.4l-1.8,5.5H8.7c-0.2,0-0.4,0.2-0.5,0.4c-0.1,0.2,0,0.5,0.2,0.6L13,18l-1.8,5.5c-0.1,0.2,0,0.5,0.2,0.6
			c0.2,0.2,0.4,0.2,0.6,0l4.7-3.4l4.7,3.4c0.1,0.1,0.2,0.1,0.3,0.1s0.2-0.1,0.3-0.1c0.2-0.2,0.3-0.4,0.2-0.6L20.6,18z M17.2,19.6
			c-0.1-0.1-0.2-0.1-0.3-0.1c-0.1,0-0.2,0.1-0.3,0.1l-3.7,2.6l1.4-4.3c0.1-0.2,0-0.5-0.2-0.6l-3.7-2.6h4.5c0.2,0,0.4-0.2,0.5-0.4
			l1.4-4.3l1.4,4.3c0.1,0.2,0.3,0.4,0.5,0.4h4.5l-3.7,2.6c-0.2,0.2-0.3,0.4-0.2,0.6l1.4,4.3L17.2,19.6z"/>
		<path class="st1" d="M16.9,6.6c0.3,0,0.5-0.2,0.5-0.5V4.7c0-0.3-0.2-0.5-0.5-0.5c-0.3,0-0.5,0.2-0.5,0.5v1.4
			C16.3,6.4,16.5,6.6,16.9,6.6z"/>
		<path class="st1" d="M16.9,27.1c-0.3,0-0.5,0.2-0.5,0.5V29c0,0.3,0.2,0.5,0.5,0.5c0.3,0,0.5-0.2,0.5-0.5v-1.4
			C17.4,27.3,17.2,27.1,16.9,27.1z"/>
		<path class="st1" d="M29,16.3h-1.4c-0.3,0-0.5,0.2-0.5,0.5s0.2,0.5,0.5,0.5H29c0.3,0,0.5-0.2,0.5-0.5S29.4,16.3,29,16.3z"/>
		<path class="st1" d="M6.6,16.9c0-0.3-0.2-0.5-0.5-0.5H4.7c-0.3,0-0.5,0.2-0.5,0.5s0.2,0.5,0.5,0.5h1.4C6.4,17.4,6.6,17.2,6.6,16.9
			z"/>
		<path class="st1" d="M24.5,9.8c0.2,0,0.3-0.1,0.4-0.2l1-1c0.2-0.2,0.2-0.5,0-0.7c-0.2-0.2-0.5-0.2-0.7,0l-1,1
			c-0.2,0.2-0.2,0.5,0,0.7C24.2,9.7,24.3,9.8,24.5,9.8z"/>
		<path class="st1" d="M8.9,24.1l-1,1c-0.2,0.2-0.2,0.5,0,0.7C8,26,8.1,26,8.2,26s0.3-0.1,0.4-0.2l1-1c0.2-0.2,0.2-0.5,0-0.7
			C9.4,23.9,9.1,23.9,8.9,24.1z"/>
		<path class="st1" d="M24.9,24.1c-0.2-0.2-0.5-0.2-0.7,0c-0.2,0.2-0.2,0.5,0,0.7l1,1c0.1,0.1,0.3,0.2,0.4,0.2
			c0.2,0,0.3-0.1,0.4-0.2c0.2-0.2,0.2-0.5,0-0.7L24.9,24.1z"/>
		<path class="st1" d="M8.9,9.6C9,9.7,9.1,9.8,9.2,9.8c0.2,0,0.3-0.1,0.4-0.2c0.2-0.2,0.2-0.5,0-0.7l-1-1c-0.2-0.2-0.5-0.2-0.7,0
			c-0.2,0.2-0.2,0.5,0,0.7L8.9,9.6z"/>
		<path class="st1" d="M20.9,7.4c0.1,0.1,0.2,0.1,0.2,0.1c0.2,0,0.4-0.1,0.5-0.3l0.6-1.3c0.1-0.3,0-0.6-0.3-0.7
			c-0.3-0.1-0.6,0-0.7,0.3l-0.6,1.3C20.5,7,20.6,7.3,20.9,7.4z"/>
		<path class="st1" d="M12.8,26.3c-0.3-0.1-0.6,0-0.7,0.3l-0.6,1.3c-0.1,0.3,0,0.6,0.3,0.7c0.1,0.1,0.2,0.1,0.2,0.1
			c0.2,0,0.4-0.1,0.5-0.3l0.6-1.3C13.2,26.7,13.1,26.4,12.8,26.3z"/>
		<path class="st1" d="M28.2,21.1l-1.3-0.6c-0.3-0.1-0.6,0-0.7,0.3c-0.1,0.3,0,0.6,0.3,0.7l1.3,0.6c0.1,0.1,0.2,0.1,0.2,0.1
			c0.2,0,0.4-0.1,0.5-0.3C28.7,21.6,28.5,21.3,28.2,21.1z"/>
		<path class="st1" d="M7.2,12.1l-1.3-0.6c-0.3-0.1-0.6,0-0.7,0.3c-0.1,0.3,0,0.6,0.3,0.7l1.3,0.6c0.1,0.1,0.2,0.1,0.2,0.1
			c0.2,0,0.4-0.1,0.5-0.3C7.6,12.6,7.4,12.2,7.2,12.1z"/>
		<path class="st1" d="M26.9,13.4c0.1,0,0.1,0,0.2-0.1l1.3-0.5c0.3-0.1,0.4-0.4,0.3-0.7c-0.1-0.3-0.4-0.4-0.7-0.3l-1.3,0.5
			c-0.3,0.1-0.4,0.4-0.3,0.7C26.4,13.3,26.7,13.4,26.9,13.4z"/>
		<path class="st1" d="M6.7,20.3l-1.3,0.5C5.1,21,4.9,21.3,5,21.6c0.1,0.2,0.3,0.3,0.5,0.3c0.1,0,0.1,0,0.2-0.1l1.3-0.5
			c0.3-0.1,0.4-0.4,0.3-0.7C7.3,20.4,7,20.2,6.7,20.3z"/>
		<path class="st1" d="M21.4,26.7c-0.1-0.3-0.4-0.4-0.7-0.3c-0.3,0.1-0.4,0.4-0.3,0.7l0.5,1.3c0.1,0.2,0.3,0.3,0.5,0.3
			c0.1,0,0.1,0,0.2-0.1c0.3-0.1,0.4-0.4,0.3-0.7L21.4,26.7z"/>
		<path class="st1" d="M12.4,7.1c0.1,0.2,0.3,0.3,0.5,0.3c0.1,0,0.1,0,0.2-0.1c0.3-0.1,0.4-0.4,0.3-0.7l-0.5-1.3
			C12.7,5,12.4,4.9,12.1,5c-0.3,0.1-0.4,0.4-0.3,0.7L12.4,7.1z"/>
	</g>
</g>
</svg>
