<svg data-name="3.svg" xmlns="http://www.w3.org/2000/svg" width="42" height="42"><circle data-name="Ellipse 7 copy 6" cx="21" cy="21" r="20" fill="none" stroke="#fbc02d" stroke-linejoin="round" stroke-width="2"/><path d="M30.339 16.619h-1.828a7.8 7.8 0 0 0 .061-.921 5.9 5.9 0 0 0-2.136-4.863.4.4 0 0 0-.441 0 5.907 5.907 0 0 0-2.135 4.863 7.8 7.8 0 0 0 .06.921H11.49a.391.391 0 0 0-.392.39v1.56a.391.391 0 0 0 .392.39h5.75c0 .006 0 .012.007.017l3.2 4.92-4.654 7.156H13.65a.39.39 0 1 0 0 .78h2.356a.394.394 0 0 0 .33-.178l4.579-7.039 4.578 7.039a.394.394 0 0 0 .33.178h2.356a.39.39 0 1 0 0-.78h-2.142l-4.655-7.156 3.2-4.92a.087.087 0 0 0 .007-.017h5.75a.39.39 0 0 0 .392-.39v-1.56a.39.39 0 0 0-.392-.39zm-5.694-.921a5.346 5.346 0 0 1 1.571-4.052 5.348 5.348 0 0 1 1.57 4.052 7.018 7.018 0 0 1-.06.921h-3.02a6.85 6.85 0 0 1-.061-.919zm-3.73 7.479l-2.744-4.218h5.487zm9.031-5H11.883V17.4h18.063v.78z" fill-rule="evenodd"/></svg>