<svg data-name="5.svg" xmlns="http://www.w3.org/2000/svg" width="42" height="42"><circle data-name="Ellipse 7 copy 8" cx="21" cy="21" r="20" fill="none" stroke="#fbc02d" stroke-linejoin="round" stroke-width="2"/><path d="M22.463 19.328a.35.35 0 0 0 .311.192.344.344 0 0 0 .157-.039 29.882 29.882 0 0 1 3.076-1.382.353.353 0 0 0 .227-.441.348.348 0 0 0-.437-.229 29.9 29.9 0 0 0-3.182 1.427.352.352 0 0 0-.152.472zm.311-4.022a.343.343 0 0 0 .157-.038 29.882 29.882 0 0 1 3.076-1.382.353.353 0 0 0 .227-.441.347.347 0 0 0-.437-.229 29.742 29.742 0 0 0-3.182 1.426.354.354 0 0 0-.152.473.349.349 0 0 0 .311.191zm8.343-.7a.349.349 0 0 0-.347.351v13.694a1.05 1.05 0 0 1-1.043 1.053h-8.344v-.808a10.154 10.154 0 0 1 3.129-.6 17.772 17.772 0 0 1 5.105.684.349.349 0 0 0 .457-.333V13.2a.35.35 0 0 0-.272-.343s-.272-.061-.738-.148a.351.351 0 0 0-.126.691c.177.033.326.062.441.085v14.7a19.426 19.426 0 0 0-4.867-.587 10.846 10.846 0 0 0-3.464.673 8.066 8.066 0 0 0-3.142-.673 23.171 23.171 0 0 0-5.215.6V13.471a22.71 22.71 0 0 1 5.215-.622 7.479 7.479 0 0 1 2.781.578v13.817a.353.353 0 0 0 .176.306.347.347 0 0 0 .351 0 39.577 39.577 0 0 1 6.536-3.128.349.349 0 0 0 .238-.333v-14.4a.352.352 0 0 0-.15-.289.341.341 0 0 0-.32-.04 36.751 36.751 0 0 0-5.624 2.84.353.353 0 0 0-.111.484.346.346 0 0 0 .479.111 37.142 37.142 0 0 1 5.031-2.593v13.631a38.878 38.878 0 0 0-5.91 2.8V13.2a.354.354 0 0 0-.193-.315 8 8 0 0 0-3.284-.739 22.367 22.367 0 0 0-5.658.716.351.351 0 0 0-.253.338v15.449a.356.356 0 0 0 .138.28.346.346 0 0 0 .21.071.341.341 0 0 0 .095-.014 22.127 22.127 0 0 1 5.468-.688 7.469 7.469 0 0 1 2.781.578v.824h-8.344a1.05 1.05 0 0 1-1.043-1.053V14.955a.348.348 0 1 0-.695 0v13.694a1.749 1.749 0 0 0 1.738 1.755h17.384a1.749 1.749 0 0 0 1.738-1.755V14.955a.349.349 0 0 0-.348-.355zm-8.654 2.617a.349.349 0 0 0 .311.192.343.343 0 0 0 .157-.038 29.6 29.6 0 0 1 3.076-1.383.351.351 0 0 0 .227-.44.348.348 0 0 0-.437-.23 29.9 29.9 0 0 0-3.182 1.427.353.353 0 0 0-.152.47zm0 4.214a.349.349 0 0 0 .311.191.343.343 0 0 0 .157-.038 29.882 29.882 0 0 1 3.076-1.382.353.353 0 0 0 .227-.441.347.347 0 0 0-.437-.229 29.742 29.742 0 0 0-3.182 1.426.354.354 0 0 0-.152.471zm-3.435-5.582a10.932 10.932 0 0 0-4.689.168.351.351 0 0 0 .09.69.348.348 0 0 0 .09-.012 10.37 10.37 0 0 1 4.351-.162.348.348 0 0 0 .418-.262.353.353 0 0 0-.26-.424zm0 2.107a10.94 10.94 0 0 0-4.689.167.351.351 0 0 0 .09.69.347.347 0 0 0 .09-.011 10.37 10.37 0 0 1 4.351-.162.348.348 0 0 0 .418-.262.352.352 0 0 0-.26-.424zm3.435 5.581a.349.349 0 0 0 .311.192.343.343 0 0 0 .157-.038 29.6 29.6 0 0 1 3.076-1.383.351.351 0 0 0 .227-.44.347.347 0 0 0-.437-.229 29.742 29.742 0 0 0-3.182 1.426.353.353 0 0 0-.152.47zm-3.435-3.474a10.922 10.922 0 0 0-4.689.167.351.351 0 0 0 .09.69.348.348 0 0 0 .09-.012 10.406 10.406 0 0 1 4.351-.162.351.351 0 0 0 .158-.685zm0 4.213a10.922 10.922 0 0 0-4.689.167.352.352 0 0 0 .09.691.348.348 0 0 0 .09-.012 10.37 10.37 0 0 1 4.351-.162.352.352 0 0 0 .158-.686zm0-2.107a10.915 10.915 0 0 0-4.689.168.351.351 0 0 0 .09.69.348.348 0 0 0 .09-.012 10.37 10.37 0 0 1 4.351-.162.348.348 0 0 0 .418-.262.353.353 0 0 0-.26-.424z" fill-rule="evenodd"/></svg>