<svg data-name="2.svg" xmlns="http://www.w3.org/2000/svg" width="42" height="42"><circle data-name="Ellipse 7 copy 5" cx="21" cy="21" r="20" fill="none" stroke="#fbc02d" stroke-linejoin="round" stroke-width="2"/><path d="M8.487 26.377a16.18 16.18 0 0 1-.681-2.8c-.129-2.05-.359-4.134.358-6.131a1.276 1.276 0 0 0-.132-1.455 1.927 1.927 0 0 1 .453-2.648 1.958 1.958 0 0 1 2.667.192.431.431 0 0 0 .591.115 8.545 8.545 0 0 1 3.534-.742c3.7.007 7.4.014 11.1 0a8.9 8.9 0 0 1 4.3.814 2.029 2.029 0 1 1 3.041 2.67.446.446 0 0 0-.123.6 8.152 8.152 0 0 1 .722 3.533c-.04 1.322-.063 2.647-.178 3.963a6.3 6.3 0 0 1-.492 1.585.4.4 0 0 0 .087.5 2.033 2.033 0 0 1-1.283 3.45 1.978 1.978 0 0 1-1.805-.874 9.25 9.25 0 0 1-3.213.865 8.014 8.014 0 0 1-.62.029H15.259a8.274 8.274 0 0 1-3.885-.813 2.047 2.047 0 1 1-2.887-2.853zm25.018 1.629a1.181 1.181 0 0 0-.571-1.048c-.433-.3-.423-.361-.21-.85a6.038 6.038 0 0 0 .591-1.678c.133-1.271.14-2.555.188-3.835a7.726 7.726 0 0 0-.862-3.746c-.232-.471-.2-.565.241-.831a1.212 1.212 0 0 0 .607-1.309 1.2 1.2 0 0 0-2.213-.386c-.26.409-.388.45-.8.219a6.559 6.559 0 0 0-3.258-.806c-3.947 0-7.895.009-11.843 0a8.055 8.055 0 0 0-3.786.892c-.44.226-.556.188-.8-.232A1.207 1.207 0 1 0 9.115 16c.408.267.393.349.206.817a8.466 8.466 0 0 0-.67 2.046c-.135 1.129-.1 2.28-.131 3.421a7.866 7.866 0 0 0 .9 3.864.477.477 0 0 1-.209.751 1.182 1.182 0 0 0-.668 1.311 1.228 1.228 0 0 0 .952.986 1.189 1.189 0 0 0 1.288-.627.457.457 0 0 1 .719-.2 6.833 6.833 0 0 0 3.538.853h11.719a7.959 7.959 0 0 0 3.591-.848c.571-.284.6-.277.943.269a1.2 1.2 0 0 0 2.212-.637zM9.242 21.442c.1-1.078.2-2.158.317-3.235a2.083 2.083 0 0 1 .184-.595.838.838 0 0 1 .8-.616.8.8 0 0 1 .76.6 4.366 4.366 0 0 1 .267 1 21.527 21.527 0 0 1-.1 6.239 1.291 1.291 0 0 1-.232.615 1.559 1.559 0 0 1-.707.482.618.618 0 0 1-.706-.463 10.611 10.611 0 0 1-.419-1.815c-.089-.73-.078-1.472-.111-2.209zm1.657-1.211l-.041-.776H10.2l-.047.776h.75zm-.692 3.256h.656v-.766h-.726zm.671-1.637c.132-.8.055-.875-.723-.739v.739h.723zm-.115-3.269l-.2-.662-.086.009-.19.653h.475zm-.478 5.775c.075.259.135.466.2.673l.09.006.189-.679h-.475z" fill-rule="evenodd"/></svg>