<svg data-name="6.svg" xmlns="http://www.w3.org/2000/svg" width="42" height="42"><circle data-name="Ellipse 7 copy 9" cx="21" cy="21" r="20" fill="none" stroke="#fbc02d" stroke-linejoin="round" stroke-width="2"/><path d="M23.564 16.246a.547.547 0 0 0 .5.353.7.7 0 0 0 .523-.279 20.048 20.048 0 0 0 2.363-2.908.987.987 0 0 0-.027-.922.683.683 0 0 0-.588-.294H15.744a.687.687 0 0 0-.6.293.987.987 0 0 0-.027.922 20.053 20.053 0 0 0 2.364 2.908.7.7 0 0 0 .522.279.549.549 0 0 0 .5-.353v-.008l.6 1.465-1.866 11.847a.333.333 0 0 0 .1.292l3.471 3.328a.325.325 0 0 0 .451 0l3.471-3.328a.333.333 0 0 0 .1-.292L22.964 17.7l.6-1.464zm2.771-3.389a.118.118 0 0 1 .047.006.436.436 0 0 1-.041.307 20.622 20.622 0 0 1-2.234 2.7l-1.256-2.3.055-.014 3.352-.693a.388.388 0 0 1 .077-.006zm-3.3 0l-.269.056h-.019l-.083.021a.959.959 0 0 0-.366.148h-2.522a.961.961 0 0 0-.365-.148l-.083-.021h-.02l-.268-.056h4zm-5.068 3.013a17.344 17.344 0 0 1-2.234-2.7.457.457 0 0 1-.044-.3.1.1 0 0 1 .049-.008.355.355 0 0 1 .075.009l3.355.693.054.014zm6.191 13.612l-3.121 2.993-1.168-1.121 3.955-3.991zm-.461-2.925l-4.3 4.341-1.477-1.416.15-.953 5.126-5.172zm-.632-4.007l-4.823 4.867.695-4.409 3.624-3.658zm-3.953-.654l.615-3.9h2.621l.086.549zm3.3-4.564h-2.741l-.747-1.837.955-1.747H22.2l.955 1.747z" fill-rule="evenodd"/></svg>