<svg data-name="11.svg" xmlns="http://www.w3.org/2000/svg" width="42" height="42"><circle data-name="Ellipse 7 copy 14" cx="21" cy="21" r="20" fill="none" stroke="#fbc02d" stroke-linejoin="round" stroke-width="2"/><path data-name="Forma 1" d="M32.9 17.4a7.379 7.379 0 0 0-.326-1.736 7.503 7.503 0 0 0-.187-.532l-.033-.081a4.617 4.617 0 0 0 .1-1.1.914.914 0 0 0-.5-.793.946.946 0 0 0-.951.041 3.924 3.924 0 0 0-.555.425 9.947 9.947 0 0 0-5.093 0 4.122 4.122 0 0 0-.555-.425.948.948 0 0 0-.952-.041.916.916 0 0 0-.5.793 4.67 4.67 0 0 0 .1 1.1 7.362 7.362 0 0 0-.311.923H21.06a10.878 10.878 0 0 0-8.335 3.838 17.743 17.743 0 0 1 2.418-4.338 1.57 1.57 0 0 0 .013-1.952 1.643 1.643 0 0 0-2.7.166 36.97 36.97 0 0 0-2.725 5.646 22.34 22.34 0 0 0-1.589 7.783v.042a2.939 2.939 0 0 0 2.962 2.883H29.75a.4.4 0 0 0 .3-.136.382.382 0 0 0 .09-.312 1.653 1.653 0 0 0-.728-1.067 3.437 3.437 0 0 0-.763-.413 9.252 9.252 0 0 0-1-2.089c3.645-2.04 3.915-4.435 3.9-5.192A3.969 3.969 0 0 0 32.9 17.4zm-8.684-2.151a.38.38 0 0 0 .024-.253 3.885 3.885 0 0 1-.108-1.02.144.144 0 0 1 .082-.129.152.152 0 0 1 .155.007 3.525 3.525 0 0 1 .59.479.4.4 0 0 0 .393.1 9.146 9.146 0 0 1 5.092 0 .4.4 0 0 0 .393-.1 3.53 3.53 0 0 1 .591-.479.151.151 0 0 1 .155-.007.145.145 0 0 1 .081.129 3.843 3.843 0 0 1-.108 1.02.38.38 0 0 0 .025.254 5.591 5.591 0 0 1 .27 3.9 3.19 3.19 0 0 1-1.975 1.725 11.476 11.476 0 0 1-3.956 0 3.193 3.193 0 0 1-1.975-1.725 5.6 5.6 0 0 1 .274-3.898zM8.93 27.158v-.038c0-2.212.547-6.847 4.207-13.039a.844.844 0 0 1 1.387-.086.8.8 0 0 1-.006 1c-2.806 3.5-4.017 9.182-4.067 9.423v.008a10.746 10.746 0 0 0-.186 1.2l-.118 1.244v2.172a2.126 2.126 0 0 1-1.217-1.884zm14.093.437l-.006-.019.029.024zm1.166.927l.924.746h-.779v-.061a1.6 1.6 0 0 0-.145-.685zm6.236-6.256a7.235 7.235 0 0 1-3.216 3.112 13.351 13.351 0 0 0-1.018-1.266.4.4 0 0 0-.559-.022.382.382 0 0 0-.023.548 11.4 11.4 0 0 1 2.335 3.879.39.39 0 0 0 .257.265 2.609 2.609 0 0 1 .882.486h-2.725l-3.768-3.042-.684-2.164a5.245 5.245 0 0 0-5.563-3.586 5.166 5.166 0 0 0-4.67 5.109v1.276a.4.4 0 0 0 .791 0v-1.276a4.385 4.385 0 0 1 3.964-4.337 4.453 4.453 0 0 1 4.722 3.044l1.021 3.23a12.191 12.191 0 0 1-2.568-.709.4.4 0 0 0-.517.209.385.385 0 0 0 .212.508 11.21 11.21 0 0 0 3.409.806.861.861 0 0 1 .837.861v.071H11.1c-.056 0-.112 0-.168-.007V26.93l.117-1.225a9.783 9.783 0 0 1 3.238-6.378 10.135 10.135 0 0 1 6.768-2.573h1.911a4.969 4.969 0 0 0 .248 2.694 3.949 3.949 0 0 0 2.432 2.158 11.442 11.442 0 0 0 4.506 0 5.458 5.458 0 0 0 .554-.236 3.774 3.774 0 0 1-.281.896z" fill-rule="evenodd"/></svg>