<svg data-name="7.svg" xmlns="http://www.w3.org/2000/svg" width="42" height="42"><circle data-name="Ellipse 7 copy 10" cx="21" cy="21" r="20" fill="none" stroke="#fbc02d" stroke-linejoin="round" stroke-width="2"/><path data-name="Forma 1" d="M29.475 20.992a3.041 3.041 0 0 0-.037-3.455 3.469 3.469 0 0 0-1.653-4.515h-.012l-2.938-1.255c.007-.08.012-.161.012-.243a2.553 2.553 0 0 0-.553-1.594.29.29 0 0 0-.226-.11h-6.061a.29.29 0 0 0-.226.11 2.553 2.553 0 0 0-.553 1.594c0 .082 0 .163.012.243l-2.938 1.255h-.012a3.47 3.47 0 0 0-1.653 4.515 9.192 9.192 0 0 1-.557 5.156 3.04 3.04 0 0 1 0 3.4 3.05 3.05 0 0 1 .222 2.912.289.289 0 0 0 .288.291h2.5v1.291a.29.29 0 0 0 .289.292H26.76a.29.29 0 0 0 .288-.292V29.3h2.439a.29.29 0 0 0 .289-.291A3.044 3.044 0 0 1 30 26.1a3.042 3.042 0 0 1 0-3.4 3.006 3.006 0 0 0-.525-1.708zm-.488 6.492h-1.856a2.581 2.581 0 0 0 .134-.823 2.547 2.547 0 0 0-.422-1.413 2.574 2.574 0 0 0 .276-.553h1.86a2.448 2.448 0 0 1 .008 2.789zm-15.9 0a2.453 2.453 0 0 1 .013-2.8h1.917a1.45 1.45 0 0 1-.142 1.976 2.581 2.581 0 0 0 .134.823h-1.922zm.013-9.6h1.8a2.574 2.574 0 0 0-.018.305 2.128 2.128 0 0 1 .016 2.534h-1.777a2.455 2.455 0 0 1-.021-2.842zm15.871 0a2.455 2.455 0 0 1-.014 2.839h-1.711a2.13 2.13 0 0 1 .017-2.534 2.574 2.574 0 0 0-.018-.305h1.726zm-.007 6.231H27.25a2.551 2.551 0 0 1 0-2.81h1.738a2.45 2.45 0 0 1-.022 2.807zm-2.625-4.222a1.984 1.984 0 0 1 0 2.242H15.8a1.984 1.984 0 0 1 0-2.242h10.54zm-10.54 5.067a1.984 1.984 0 0 1 0-2.242h10.54a1.984 1.984 0 0 1 0 2.242H15.8zm10.54-7.892a1.984 1.984 0 0 1 0 2.242H15.8a1.984 1.984 0 0 1 0-2.242h10.54zM13.089 21.3h1.8a2.128 2.128 0 0 1-.016 2.534 2.6 2.6 0 0 0 .014.266H13.1a2.454 2.454 0 0 1-.011-2.8zm2.712 6.48a1.984 1.984 0 0 1 0-2.242h10.54a1.984 1.984 0 0 1 0 2.242H15.8zm-1.269-14.231l2.83-1.209a2.575 2.575 0 0 0 .419.771.287.287 0 0 0 .406.046.293.293 0 0 0 .045-.409 1.994 1.994 0 0 1-.316-1.889 1.014 1.014 0 0 0 .807.443h1.642a.381.381 0 0 1 .378.383.342.342 0 0 0 0 .045v2.557a.289.289 0 1 0 .577 0V11.73a.342.342 0 0 0 0-.045.38.38 0 0 1 .378-.382h1.642a1.017 1.017 0 0 0 .81-.446 1.994 1.994 0 0 1-.315 1.892.293.293 0 0 0 .045.409.286.286 0 0 0 .406-.046 2.575 2.575 0 0 0 .419-.771l2.83 1.209a2.883 2.883 0 0 1 1.368 3.748h-1.8a.714.714 0 0 1 .01-1.161.294.294 0 0 0-.175-.373.287.287 0 0 0-.368.176 1.96 1.96 0 0 1-.294.541h-10.42a1.96 1.96 0 0 1-.294-.541.289.289 0 0 0-.369-.176.292.292 0 0 0-.174.373.714.714 0 0 1 .01 1.161h-1.87a2.883 2.883 0 0 1 1.373-3.747zm-1.469 14.516h1.647l-.363.647H12.9a2.41 2.41 0 0 1 .163-.645zm8.261 2.23v-.446a.289.289 0 1 0-.577 0v.451h-5.082v-1.014a2.447 2.447 0 0 1 .177-.918h10.45a2.447 2.447 0 0 1 .177.918V30.3h-5.145zm6.4-1.583l-.363-.647h1.647a2.41 2.41 0 0 1 .168.647h-1.452z" fill-rule="evenodd"/></svg>