<svg data-name="10.svg" xmlns="http://www.w3.org/2000/svg" width="42" height="42"><circle data-name="Ellipse 7 copy 13" cx="21" cy="21" r="20" fill="none" stroke="#fbc02d" stroke-linejoin="round" stroke-width="2"/><path data-name="Forma 1" d="M31.657 14.341c-.344-1.738-1.674-3.232-3.954-4.441a.5.5 0 0 0-.508-.025.724.724 0 0 0-.276.388c-.065.183-.728 1.77-5.673 7.195-.582.638-1.106 1.238-1.613 1.818a18.473 18.473 0 0 1-3.42 3.386 2.881 2.881 0 0 1-1.483.5 1.5 1.5 0 0 1-1.173-.546.542.542 0 0 0-.5-.179c-.328.057-3.224.6-4.233 2.236a3.731 3.731 0 0 0-.64 2.016 5.2 5.2 0 0 0 .614 2.25 3.533 3.533 0 0 0 2.739 1.937h6.94c.448 0 1.959-.18 3.092-4.5.455-1.736 1.182-4.556 3.563-6.264a3.053 3.053 0 0 1 .342 1.464c0 .063.093 6.356.2 8.775a.546.546 0 0 0 .543.523h1.567a.541.541 0 0 0 .386-.163.548.548 0 0 0 .156-.392 59.388 59.388 0 0 1 .287-7.933 9.829 9.829 0 0 1 1.941-3.811l.007-.009.011-.012a5.483 5.483 0 0 0 1.085-4.213zM18.482 29.786a.162.162 0 0 0-.046 0h-6.8A2.614 2.614 0 0 1 9.56 28.02c1.384.135 3.236.213 5.078.213 1.657 0 3.175-.064 4.276-.181.439-.046.8-.1 1.1-.158-.64 1.761-1.43 1.884-1.532 1.892zm9.076-7.666a53.649 53.649 0 0 0-.326 7.666h-.5c-.1-2.681-.175-8.162-.176-8.223a4.273 4.273 0 0 0-.5-2 8.485 8.485 0 0 1 3.024-.843 11.123 11.123 0 0 0-1.522 3.4zm2.336-4.487a5.982 5.982 0 0 0-.486-.019 9.4 9.4 0 0 0-4.2 1.161c-3.271 1.861-4.192 5.419-4.687 7.33-.055.21-.1.4-.149.562-.419.2-2.2.473-5.73.473-1.949 0-3.947-.089-5.319-.238a1.98 1.98 0 0 1 .428-1.655c.575-.921 2.317-1.478 3.217-1.676a2.553 2.553 0 0 0 1.764.686 3.922 3.922 0 0 0 2.052-.666A18.946 18.946 0 0 0 20.448 20c.5-.576 1.024-1.171 1.6-1.8 3.766-4.132 5.145-6.136 5.65-7.051a5.442 5.442 0 0 1 2.895 3.4 4.312 4.312 0 0 1-.699 3.084z" fill-rule="evenodd"/></svg>