<svg data-name="4.svg" xmlns="http://www.w3.org/2000/svg" width="42" height="42"><circle data-name="Ellipse 7 copy 7" cx="21" cy="21" r="20" fill="none" stroke="#fbc02d" stroke-linejoin="round" stroke-width="2"/><path data-name="Forma 1" d="M25.986 19.856v-1.42a8.64 8.64 0 0 0 .6-3.588 15.166 15.166 0 0 1 .632-3.437l.132-.446-2.931-.674-.1.421a3.348 3.348 0 0 1-2.577 2.369l-.287.051-.064.283c-.146.65-.265 1.087-.357 1.38-.091-.293-.21-.73-.357-1.38l-.063-.283-.287-.051a3.318 3.318 0 0 1-2.577-2.369l-.1-.421-2.931.674.132.446a15.166 15.166 0 0 1 .632 3.437 8.661 8.661 0 0 0 .6 3.588v1.412l-4.256 9.595.248.211c.081.069 2.07 1.7 8.956 1.7s8.875-1.629 8.956-1.7l.248-.211zm-9.023-.352v-.62h8.149v.62h-8.149zm.078-8.176a4.62 4.62 0 0 0 .5.927 4 4 0 0 0 2.349 1.626c.119.509.232.929.337 1.251a.832.832 0 1 0 1.621 0c.1-.322.218-.742.337-1.251a4 4 0 0 0 2.349-1.626 4.62 4.62 0 0 0 .5-.927l1.224.282a13.431 13.431 0 0 0-.542 3.275 7.91 7.91 0 0 1-.5 3.125H16.86a7.872 7.872 0 0 1-.5-3.125 13.431 13.431 0 0 0-.542-3.275zm10.653 18.4a30.006 30.006 0 0 1-13.316 0 7.317 7.317 0 0 1-1.463-.575l3.895-8.778h1.622l-.858 3.809.853.192.9-4h3.376l.9 4 .853-.192-.858-3.809h1.659l3.895 8.778a7.3 7.3 0 0 1-1.458.578z" fill-rule="evenodd"/></svg>