<svg xmlns="http://www.w3.org/2000/svg" viewBox="0 0 20 18"><path d="M14.8 18h-10c-1.7 0-3.3-.9-4.1-2.4-.8-1.4-.8-3.2 0-4.7l5-8.6C7 0 9.9-.7 12.2.6c.7.4 1.3 1 1.7 1.7l5 8.6c.8 1.4.8 3.2 0 4.7-.9 1.5-2.4 2.4-4.1 2.4zM9.7 1.5c-1.1 0-2.2.6-2.7 1.6l-5 8.6c-.6 1-.6 2.2 0 3.2s1.6 1.6 2.8 1.6h10c1.2 0 2.2-.6 2.8-1.6.6-1 .6-2.2 0-3.2l-5-8.6c-.6-1-1.7-1.6-2.9-1.6z"/><path d="M9.7 6c-.1 0-.2.1-.3.2-.1.1-.1.2-.1.3l.4 1.6.4-1.6c0-.1 0-.3-.1-.4 0 0-.1-.1-.3-.1z" fill="none"/><path d="M11.2 5.3c-.7-.8-1.9-1-2.7-.3-.1 0-.2.1-.3.3-.3.4-.4 1-.3 1.6L9 11.4c.1.4.5.6.9.5.3-.1.5-.3.5-.5l1.1-4.5c.2-.6.1-1.2-.3-1.6zm-1.1 1.2l-.4 1.7-.4-1.7c0-.1 0-.3.1-.4.2-.1.4-.2.6 0l.1.1c.1.1.1.2 0 .3z"/><circle cx="9.7" cy="13.9" r="1.1"/></svg>