<svg id="Слой_1" xmlns="http://www.w3.org/2000/svg" viewBox="0 0 56 56"><style>.st0{fill:#fff}</style><circle class="st0" cx="28.5" cy="28" r="27"/><path d="M39.5 42h-22c-2.2 0-4-1.8-4-4V18c0-2.2 1.8-4 4-4h22c2.2 0 4 1.8 4 4v20c0 2.2-1.8 4-4 4z" fill="#ff7747" stroke="#000" stroke-width="2" stroke-miterlimit="10"/><path d="M28.5 36.5c-.3 0-.5.2-.5.5v2.5c0 .3.2.5.5.5s.5-.2.5-.5V37c0-.2-.2-.5-.5-.5zM28.5 31.4c-.3 0-.5.2-.5.5v2.5c0 .3.2.5.5.5s.5-.2.5-.5v-2.5c0-.3-.2-.5-.5-.5zM28.5 26.2c-.3 0-.5.2-.5.5v2.5c0 .3.2.5.5.5s.5-.2.5-.5v-2.5c0-.3-.2-.5-.5-.5zM28.5 21c-.3 0-.5.2-.5.5V24c0 .3.2.5.5.5s.5-.2.5-.5v-2.5c0-.3-.2-.5-.5-.5zM28.5 16c-.3 0-.5.2-.5.5V19c0 .3.2.5.5.5s.5-.3.5-.5v-2.5c0-.3-.2-.5-.5-.5z"/><path class="st0" d="M35 29h-2c-.5 0-1-.4-1-1 0-.5.4-1 1-1h2c.5 0 1 .4 1 1s-.4 1-1 1zM24 29h-2c-.5 0-1-.4-1-1 0-.5.4-1 1-1h2c.5 0 1 .4 1 1s-.4 1-1 1z"/></svg>