<svg xmlns="http://www.w3.org/2000/svg" xmlns:xlink="http://www.w3.org/1999/xlink" viewBox="0 0 95 80" version="1.1" width="95" height="80"
     x="0px" y="0px">
    <title>logo</title>
    <desc>logo</desc>
    <g stroke="none" stroke-width="1" fill="none" fill-rule="evenodd">
        <g transform="translate(-840.000000, -1130.000000)" fill="#000000">
            <g transform="translate(840.000000, 1130.000000)">
                <polygon points="6 47 54 47 54 43 6 43"/>
                <path d="M41.084,24.0842 C41.551,27.0782 43.922,29.4492 46.916,29.9162 C46.449,26.9222 44.078,24.5512 41.084,24.0842"/>
                <path d="M49.084,23.9162 C52.078,23.4492 54.449,21.0782 54.916,18.0842 C51.922,18.5512 49.551,20.9222 49.084,23.9162"/>
                <path d="M31.084,35.9162 C34.078,35.4492 36.449,33.0782 36.916,30.0842 C33.922,30.5512 31.551,32.9222 31.084,35.9162"/>
                <path d="M59.4092,13.0881 L30.4092,0.0881 C30.1492,-0.0289 29.8502,-0.0289 29.5912,0.0881 L0.5912,13.0881 C0.2312,13.2491 0.0002,13.6071 0.0002,14.0001 L0.0002,46.0001 C0.0002,46.5531 0.4472,47.0001 1.0002,47.0001 L4.0002,47.0001 L4.0002,42.0001 C4.0002,41.4471 4.4472,41.0001 5.0002,41.0001 L11.0002,41.0001 L11.0002,31.9411 C6.5062,31.4421 3.0002,27.6251 3.0002,23.0001 C3.0002,22.4471 3.4472,22.0001 4.0002,22.0001 C6.8262,22.0001 9.3492,23.3121 11.0002,25.3551 L11.0002,15.2221 C11.0002,14.6691 11.4472,14.2221 12.0002,14.2221 C12.5532,14.2221 13.0002,14.6691 13.0002,15.2221 L13.0002,19.3551 C14.6512,17.3121 17.1742,16.0001 20.0002,16.0001 C20.5532,16.0001 21.0002,16.4471 21.0002,17.0001 C21.0002,21.6251 17.4932,25.4421 13.0002,25.9411 L13.0002,31.3551 C14.6512,29.3121 17.1742,28.0001 20.0002,28.0001 C20.5532,28.0001 21.0002,28.4471 21.0002,29.0001 C21.0002,33.6251 17.4932,37.4421 13.0002,37.9411 L13.0002,41.0001 L29.0002,41.0001 L29.0002,31.9411 C24.5062,31.4421 21.0002,27.6251 21.0002,23.0001 C21.0002,22.4471 21.4472,22.0001 22.0002,22.0001 C24.8262,22.0001 27.3492,23.3121 29.0002,25.3551 L29.0002,15.2221 C29.0002,14.6691 29.4472,14.2221 30.0002,14.2221 C30.5532,14.2221 31.0002,14.6691 31.0002,15.2221 L31.0002,19.3551 C32.6512,17.3121 35.1742,16.0001 38.0002,16.0001 C38.5532,16.0001 39.0002,16.4471 39.0002,17.0001 C39.0002,21.6251 35.4932,25.4421 31.0002,25.9411 L31.0002,31.3551 C32.6512,29.3121 35.1742,28.0001 38.0002,28.0001 C38.5532,28.0001 39.0002,28.4471 39.0002,29.0001 C39.0002,33.6251 35.4932,37.4421 31.0002,37.9411 L31.0002,41.0001 L47.0002,41.0001 L47.0002,31.9411 C42.5062,31.4421 39.0002,27.6251 39.0002,23.0001 C39.0002,22.4471 39.4472,22.0001 40.0002,22.0001 C42.8262,22.0001 45.3492,23.3121 47.0002,25.3551 L47.0002,15.2221 C47.0002,14.6691 47.4472,14.2221 48.0002,14.2221 C48.5532,14.2221 49.0002,14.6691 49.0002,15.2221 L49.0002,19.3551 C50.6512,17.3121 53.1742,16.0001 56.0002,16.0001 C56.5532,16.0001 57.0002,16.4471 57.0002,17.0001 C57.0002,21.6251 53.4932,25.4421 49.0002,25.9411 L49.0002,31.3551 C50.6512,29.3121 53.1742,28.0001 56.0002,28.0001 C56.5532,28.0001 57.0002,28.4471 57.0002,29.0001 C57.0002,33.6251 53.4932,37.4421 49.0002,37.9411 L49.0002,41.0001 L55.0002,41.0001 C55.5532,41.0001 56.0002,41.4471 56.0002,42.0001 L56.0002,47.0001 L59.0002,47.0001 C59.5532,47.0001 60.0002,46.5531 60.0002,46.0001 L60.0002,14.0001 C60.0002,13.6071 59.7682,13.2491 59.4092,13.0881"/>
                <path d="M49.084,35.9162 C52.078,35.4492 54.449,33.0782 54.916,30.0842 C51.922,30.5512 49.551,32.9222 49.084,35.9162"/>
                <path d="M13.084,23.9162 C16.078,23.4492 18.449,21.0782 18.916,18.0842 C15.922,18.5512 13.551,20.9222 13.084,23.9162"/>
                <path d="M5.084,24.0842 C5.551,27.0782 7.922,29.4492 10.916,29.9162 C10.449,26.9222 8.078,24.5512 5.084,24.0842"/>
                <path d="M13.084,35.9162 C16.078,35.4492 18.449,33.0782 18.916,30.0842 C15.922,30.5512 13.551,32.9222 13.084,35.9162"/>
                <path d="M31.084,23.9162 C34.078,23.4492 36.449,21.0782 36.916,18.0842 C33.922,18.5512 31.551,20.9222 31.084,23.9162"/>
                <path d="M23.084,24.0842 C23.551,27.0782 25.922,29.4492 28.916,29.9162 C28.449,26.9222 26.078,24.5512 23.084,24.0842"/>
            </g>
        </g>
    </g>
</svg>